Coordinates
version=1
nRows=12
nColumns=33
inDegrees=yes

Units are S.I. units (second, meters, Newtons, ...)
Angles are in degrees.

endheader
time	ground_thorax_rot_x	ground_thorax_rot_y	ground_thorax_rot_z	ground_thorax_tx	ground_thorax_ty	ground_thorax_tz	clav_prot_r	clav_elev_r	scapula_abduction_r	scapula_elevation_r	scapula_upward_rot_r	scapula_winging_r	shoulder_elv_r	plane_of_elev_r	axial_rot_r	elbow_flexion_r	pro_sup_r	wrist_flex_r	wrist_dev_r	clav_prot_l	clav_elev_l	scapula_abduction_l	scapula_elevation_l	scapula_upward_rot_l	scapula_winging_l	shoulder_elv_l	plane_of_elev_l	axial_rot_l	elbow_flexion_l	pro_sup_l	wrist_flex_l	wrist_dev_l
      3.71000000	     90.00000000	     90.00000000	     90.00000000	   -218.79175248	    842.19015041	      7.21772721	     25.98154864	    -45.00000000	     45.00000000	    -45.00000000	      7.26366316	   1798.91430544	  -1880.14752472	    136.69302205	   -179.99999979	   1088.37957169	   -140.77609989	     20.41217083	     15.69190028	    -45.00000000	     11.02812340	     32.68210520	    -14.92652713	     45.00000000	  -2416.68114878	   1374.57944590	    130.94293689	    179.99999979	   1442.24656349	    213.03079713	     10.87396878	    -22.16575236
      3.72000000	     90.00000000	     90.00000000	     90.00000000	   -216.32252290	    841.23198522	      7.20870544	     26.01220757	    -45.00000000	     45.00000000	    -45.00000000	      7.60362797	   1798.80821501	  -1879.98824913	    136.79685119	   -179.99999979	   1088.15685099	   -140.81734834	     20.30459049	     15.75923124	    -45.00000000	     10.93431230	     32.81539634	    -14.88051963	     45.00000000	  -2416.66545644	   1374.76045350	    131.03098226	    179.99999979	   1442.02355202	    212.67098324	     11.01668073	    -22.07993298
      3.73000000	     90.00000000	     90.00000000	     90.00000000	   -213.72993324	    840.15367918	      7.19192362	     26.02656082	    -45.00000000	     45.00000000	    -45.00000000	      7.96382714	   1798.72352036	  -1879.86843778	    136.92199488	   -179.99999979	   1087.85123387	   -140.86496116	     20.20223835	     15.81437185	    -45.00000000	     10.92510067	     32.94913148	    -14.91779131	     45.00000000	  -2416.63792364	   1374.95023989	    131.08798462	    179.99999979	   1441.78932661	    212.28663425	     11.16092829	    -21.97590293
      3.74000000	     90.00000000	     90.00000000	     90.00000000	   -211.01914637	    838.94828604	      7.16650166	     26.12082049	    -45.00000000	     45.00000000	    -45.00000000	      8.33249557	   1798.66238263	  -1879.69730656	    137.09655725	   -179.99999979	   1087.63287685	   -140.90014783	     20.06188765	     15.85832134	    -45.00000000	     10.96289504	     33.07673787	    -14.99820748	     45.00000000	  -2416.57651478	   1375.08399332	    131.18780696	    179.99999979	   1441.52871309	    211.86806931	     11.28880008	    -21.85077271
      3.75000000	     90.00000000	     90.00000000	     90.00000000	   -208.19170421	    837.61087518	      7.13254866	     26.20876519	    -45.00000000	     45.00000000	    -45.00000000	      8.69601506	   1798.56990719	  -1879.52494726	    137.24031464	   -179.99999979	   1087.42010157	   -140.94010080	     19.90708700	     15.89587050	    -45.00000000	     10.94117420	     33.13905967	    -15.01937469	     45.00000000	  -2416.51220929	   1375.35718687	    131.33257284	    179.99999979	   1441.38037874	    211.41576663	     11.44515264	    -21.69629600
      3.76000000	     90.00000000	     90.00000000	     90.00000000	   -205.24725895	    836.13803351	      7.09045730	     26.31410866	    -45.00000000	     45.00000000	    -45.00000000	      9.09876066	   1798.54231673	  -1879.36477930	    137.39520528	   -179.99999979	   1087.14749511	   -140.99490874	     19.75496979	     15.91910607	    -45.00000000	     11.02039102	     33.35423853	    -15.11192350	     45.00000000	  -2416.43998587	   1375.49789444	    131.38137048	    179.99999979	   1441.16101320	    210.91060761	     11.57779255	    -21.52595482
      3.77000000	     90.00000000	     90.00000000	     90.00000000	   -202.18489951	    834.52803337	      7.04107231	     26.37362047	    -45.00000000	     45.00000000	    -45.00000000	      9.45500807	   1798.43453609	  -1879.22284224	    137.42066609	   -179.99999979	   1086.89464233	   -141.04574460	     19.59152123	     15.94299490	    -45.00000000	     10.89721339	     33.52643562	    -15.16783713	     45.00000000	  -2416.39105846	   1375.73732022	    131.45941611	    179.99999979	   1440.86387875	    210.33027177	     11.71751068	    -21.36237802
      3.78000000	     90.00000000	     90.00000000	     90.00000000	   -199.00738046	    832.78218286	      6.98547075	     26.48147745	    -45.00000000	     45.00000000	    -45.00000000	      9.85502228	   1798.36839086	  -1879.08966567	    137.52619083	   -179.99999979	   1086.65956628	   -141.17555418	     19.39564851	     15.97944151	    -45.00000000	     10.87242955	     33.76178984	    -15.24701270	     45.00000000	  -2416.35554054	   1375.92452303	    131.54246047	    179.99999979	   1440.65405664	    209.64732462	     11.87722907	    -21.14601839
      3.79000000	     90.00000000	     90.00000000	     90.00000000	   -195.71106315	    830.89805809	      6.92463778	     26.52346910	    -45.00000000	     45.00000000	    -45.00000000	     10.26642047	   1798.27023575	  -1878.99630316	    137.63164589	   -179.99999979	   1086.49776456	   -141.42623107	     19.13814500	     16.06698027	    -45.00000000	     10.71058615	     33.94306950	    -15.31893473	     45.00000000	  -2416.26816897	   1376.21872174	    131.61303033	    179.99999979	   1440.45633531	    208.81582850	     12.10545245	    -20.90671844
      3.80000000	     90.00000000	     90.00000000	     90.00000000	   -192.29906307	    828.88042712	      6.86038842	     26.12636738	    -45.00000000	     45.00000000	    -45.00000000	     10.30049676	   1798.09839286	  -1878.40285202	    137.59675484	   -179.99999979	   1086.42490412	   -142.36305188	     18.93329945	     16.14634848	    -45.00000000	     10.78221387	     34.21031183	    -15.46465993	     45.00000000	  -2416.14751681	   1376.42291658	    131.58860376	    179.99999979	   1440.20795860	    207.64687140	     12.33156512	    -20.62124988
      3.81000000	     40.75031767	     13.32536036	     13.07649156	   -188.73384798	    826.78662189	      6.76186484	     13.34909158	     40.76194571	     40.42365579	     45.00000000	    -27.58722068	   1709.19720640	  -1915.99083800	    149.32310028	   -110.44550298	   1101.44782586	   -171.21911200	      7.85430846	      3.96478426	      7.09288058	    -45.00000000	    -37.09236023	     45.00000000	    -40.31595218	  -2424.08322385	   1346.62286570	    140.82550023	    137.18125911	   1462.52200295	    172.79931636	     -1.51897855	     -7.82536700
      3.82000000	     40.85452041	     13.30783647	     12.96981027	   -185.11067360	    824.49895271	      6.69687169	     12.95744092	     40.86768999	     40.63250632	     45.00000000	    -27.13179263	   1708.99417428	  -1916.34937192	    149.12247069	   -111.13550961	   1101.54050276	   -172.98799029	      7.86466930	      3.18055101	      7.43389522	    -45.00000000	    -37.19714283	     45.00000000	    -40.57417162	  -2424.48958488	   1346.44983795	    140.40561638	    138.05836059	   1462.57705085	    171.83243425	     -1.13652209	     -7.96698238
